<svg data-v-fde0c5aa="" xmlns="http://www.w3.org/2000/svg" viewBox="0 0 300 300" class="iconLeftSlogan"><!----><defs data-v-fde0c5aa=""><!----></defs><rect data-v-fde0c5aa="" fill="transparent" x="0" y="0" width="300px" height="300px" class="logo-background-square"></rect><defs data-v-fde0c5aa=""><!----></defs><g data-v-fde0c5aa="" id="df5b0bc7-ea6a-4061-9192-33308d778204" fill="#000000" transform="matrix(2.654995918273926,0,0,2.654995918273926,117.93116895167974,110.34369516710731)"><path d="M2.74 7.81L1.12 8.75L1.12 14.01L2.74 14.95L4.86 14.95L5.85 14.38L6.19 14.95L7.21 14.95L7.21 4.66L5.85 4.66L5.85 8.39L4.86 7.81ZM5.85 13.73L2.48 13.73L2.48 9.03L5.85 9.03ZM15.40 14.01L15.40 8.75L13.78 7.81L11.07 7.81L9.45 8.75L9.45 14.01L11.07 14.95L13.78 14.95ZM10.81 9.03L14.04 9.03L14.04 13.73L10.81 13.73ZM17.08 9.10L18.37 9.10L18.37 13.94L19.99 14.88L21.41 14.88L21.41 13.66L19.73 13.66L19.73 9.10L21.41 9.10L21.41 7.88L19.73 7.88L19.73 5.92L18.37 6.71L18.37 7.88L17.08 7.88ZM23.65 14.88L25.75 14.88L25.75 12.78L23.65 12.78ZM37.69 8.75L36.06 7.81L34.65 7.81L33.33 8.57L32.03 7.81L30.62 7.81L29.62 8.39L29.29 7.81L28.27 7.81L28.27 14.88L29.62 14.88L29.62 9.03L32.30 9.03L32.30 14.88L33.66 14.88L33.66 9.03L36.33 9.03L36.33 14.88L37.69 14.88ZM41.01 12.01L43.82 12.01L43.82 13.73L41.01 13.73ZM41.27 14.95L42.83 14.95L43.82 14.38L44.81 14.95L45.18 14.95L45.18 8.82L43.55 7.88L40.35 7.88L40.35 9.10L43.82 9.10L43.82 10.79L41.27 10.79L39.65 11.73L39.65 14.01ZM51.88 14.95L53.51 14.01L53.51 8.75L51.88 7.81L49.77 7.81L48.78 8.39L48.44 7.81L47.42 7.81L47.42 17.68L48.78 17.68L48.78 14.38L49.77 14.95ZM48.78 9.03L52.15 9.03L52.15 13.73L48.78 13.73Z"></path></g><defs data-v-fde0c5aa=""><linearGradient data-v-fde0c5aa="" gradientTransform="rotate(25)" id="25bbad0f-dc4a-4eec-91d1-477343ff3412" x1="0%" y1="0%" x2="100%" y2="0%"><stop data-v-fde0c5aa="" offset="0%" stop-color="#E90DDA" stop-opacity="1"></stop><stop data-v-fde0c5aa="" offset="100%" stop-color="#15CFF1" stop-opacity="1"></stop></linearGradient></defs><g data-v-fde0c5aa="" id="ffc2c977-9aa1-49ae-b483-b4f96dcd3c1c" stroke="none" fill="url(#25bbad0f-dc4a-4eec-91d1-477343ff3412)" transform="matrix(0.7544972896575928,0,0,0.7544972896575928,36.22751340784278,112.2751312002489)"><circle cx="15.2" cy="84.8" r="10.2"></circle><circle cx="15.2" cy="67.4" r="2"></circle><circle cx="32.6" cy="50" r="2"></circle><circle cx="32.6" cy="84.8" r="2"></circle><circle cx="32.6" cy="67.4" r="10.2"></circle><circle cx="15.2" cy="50" r="10.2"></circle><circle cx="15.2" cy="32.6" r="2"></circle><circle cx="32.6" cy="15.2" r="2"></circle><circle cx="15.2" cy="15.2" r="10.2"></circle><circle cx="32.6" cy="32.6" r="10.2"></circle><circle cx="50" cy="84.8" r="10.2"></circle><circle cx="50" cy="67.4" r="2"></circle><circle cx="67.4" cy="50" r="2"></circle><circle cx="67.4" cy="84.8" r="2"></circle><circle cx="67.4" cy="67.4" r="10.2"></circle><circle cx="50" cy="50" r="10.2"></circle><circle cx="50" cy="32.6" r="2"></circle><circle cx="67.4" cy="15.2" r="2"></circle><circle cx="50" cy="15.2" r="10.2"></circle><circle cx="84.8" cy="84.8" r="10.2"></circle><circle cx="84.8" cy="67.4" r="2"></circle><circle cx="84.8" cy="50" r="10.2"></circle><circle cx="84.8" cy="32.6" r="2"></circle><circle cx="84.8" cy="15.2" r="10.2"></circle><circle cx="67.4" cy="32.6" r="10.2"></circle></g><defs data-v-fde0c5aa=""><!----></defs><g data-v-fde0c5aa="" id="8e03cb61-83cb-4d2f-a126-df43b2cd3689" fill="#000000" transform="matrix(0.6653682589530945,0,0,0.6653682589530945,120.22608880852752,163.5047325957227)"><path d="M7.07 6.97L7.07 12.74L7.07 12.74Q7.07 14.27 6.32 15.07L6.32 15.07L6.32 15.07Q5.57 15.88 4.13 15.88L4.13 15.88L4.13 15.88Q2.69 15.88 1.85 15.07L1.85 15.07L1.85 15.07Q1.02 14.27 1.02 12.74L1.02 12.74L1.02 11.98L2.20 11.98L2.20 12.74L2.20 12.74Q2.20 13.66 2.67 14.22L2.67 14.22L2.67 14.22Q3.15 14.78 4.13 14.78L4.13 14.78L4.13 14.78Q5.11 14.78 5.50 14.22L5.50 14.22L5.50 14.22Q5.89 13.66 5.89 12.74L5.89 12.74L5.89 6.97L4.89 6.97L4.89 5.88L7.91 5.88L7.91 6.97L7.07 6.97ZM22.16 9.21L22.16 8.71L22.16 8.71Q22.16 8.23 21.97 7.87L21.97 7.87L21.97 7.87Q21.78 7.50 21.46 7.27L21.46 7.27L21.46 7.27Q21.14 7.03 20.72 6.90L20.72 6.90L20.72 6.90Q20.30 6.78 19.84 6.78L19.84 6.78L19.84 6.78Q19.43 6.78 19.07 6.88L19.07 6.88L19.07 6.88Q18.70 6.99 18.42 7.18L18.42 7.18L18.42 7.18Q18.13 7.38 17.96 7.66L17.96 7.66L17.96 7.66Q17.79 7.95 17.79 8.33L17.79 8.33L17.79 8.41L17.79 8.41Q17.79 8.82 17.96 9.11L17.96 9.11L17.96 9.11Q18.13 9.39 18.46 9.60L18.46 9.60L18.46 9.60Q18.79 9.80 19.28 9.93L19.28 9.93L19.28 9.93Q19.77 10.07 20.43 10.16L20.43 10.16L20.43 10.16Q21.97 10.40 22.69 11.07L22.69 11.07L22.69 11.07Q23.42 11.73 23.42 12.85L23.42 12.85L23.42 13.02L23.42 13.02Q23.42 13.65 23.20 14.17L23.20 14.17L23.20 14.17Q22.99 14.70 22.56 15.08L22.56 15.08L22.56 15.08Q22.13 15.46 21.50 15.67L21.50 15.67L21.50 15.67Q20.87 15.88 20.05 15.88L20.05 15.88L20.05 15.88Q19.11 15.88 18.39 15.60L18.39 15.60L18.39 15.60Q17.67 15.33 17.18 14.85L17.18 14.85L17.18 14.85Q16.70 14.36 16.45 13.71L16.45 13.71L16.45 13.71Q16.20 13.06 16.20 12.29L16.20 12.29L16.20 11.87L17.37 11.87L17.37 12.21L17.37 12.21Q17.37 13.50 18.08 14.14L18.08 14.14L18.08 14.14Q18.79 14.78 20.05 14.78L20.05 14.78L20.05 14.78Q21.14 14.78 21.69 14.30L21.69 14.30L21.69 14.30Q22.25 13.82 22.25 13.02L22.25 13.02L22.25 12.94L22.25 12.94Q22.25 12.17 21.68 11.76L21.68 11.76L21.68 11.76Q21.11 11.35 19.84 11.17L19.84 11.17L19.84 11.17Q19.10 11.07 18.50 10.87L18.50 10.87L18.50 10.87Q17.91 10.67 17.49 10.34L17.49 10.34L17.49 10.34Q17.07 10.01 16.84 9.55L16.84 9.55L16.84 9.55Q16.62 9.09 16.62 8.46L16.62 8.46L16.62 8.29L16.62 8.29Q16.62 7.71 16.86 7.24L16.86 7.24L16.86 7.24Q17.09 6.76 17.52 6.41L17.52 6.41L17.52 6.41Q17.95 6.06 18.54 5.87L18.54 5.87L18.54 5.87Q19.14 5.68 19.85 5.68L19.85 5.68L19.85 5.68Q20.68 5.68 21.33 5.92L21.33 5.92L21.33 5.92Q21.98 6.16 22.43 6.56L22.43 6.56L22.43 6.56Q22.88 6.96 23.11 7.50L23.11 7.50L23.11 7.50Q23.34 8.04 23.34 8.62L23.34 8.62L23.34 9.21L22.16 9.21ZM31.98 11.87L31.98 9.69L31.98 9.69Q31.98 7.78 32.89 6.73L32.89 6.73L32.89 6.73Q33.80 5.68 35.42 5.68L35.42 5.68L35.42 5.68Q37.04 5.68 37.95 6.73L37.95 6.73L37.95 6.73Q38.86 7.78 38.86 9.69L38.86 9.69L38.86 11.87L38.86 11.87Q38.86 13.83 37.95 14.85L37.95 14.85L37.95 14.85Q37.04 15.88 35.42 15.88L35.42 15.88L35.42 15.88Q33.80 15.88 32.89 14.85L32.89 14.85L32.89 14.85Q31.98 13.83 31.98 11.87L31.98 11.87ZM35.42 14.78L35.42 14.78L35.42 14.78Q36.55 14.78 37.12 14.01L37.12 14.01L37.12 14.01Q37.69 13.23 37.69 11.79L37.69 11.79L37.69 9.77L37.69 9.77Q37.69 8.43 37.12 7.60L37.12 7.60L37.12 7.60Q36.55 6.78 35.42 6.78L35.42 6.78L35.42 6.78Q34.29 6.78 33.72 7.60L33.72 7.60L33.72 7.60Q33.15 8.43 33.15 9.77L33.15 9.77L33.15 11.79L33.15 11.79Q33.15 13.23 33.72 14.01L33.72 14.01L33.72 14.01Q34.29 14.78 35.42 14.78ZM50.08 5.88L52.91 15.18L53.07 15.18L53.07 5.88L54.25 5.88L54.25 15.68L51.90 15.68L49.07 6.38L48.90 6.38L48.90 15.68L47.73 15.68L47.73 5.88L50.08 5.88ZM65.58 14.90L65.58 14.90L65.58 14.90Q65.58 14.49 65.86 14.20L65.86 14.20L65.86 14.20Q66.15 13.92 66.56 13.92L66.56 13.92L66.56 13.92Q66.96 13.92 67.25 14.20L67.25 14.20L67.25 14.20Q67.54 14.49 67.54 14.90L67.54 14.90L67.54 14.90Q67.54 15.30 67.25 15.59L67.25 15.59L67.25 15.59Q66.96 15.88 66.56 15.88L66.56 15.88L66.56 15.88Q66.15 15.88 65.86 15.59L65.86 15.59L65.86 15.59Q65.58 15.30 65.58 14.90ZM79.17 15.68L79.17 5.88L85.19 5.88L85.19 6.97L80.35 6.97L80.35 10.22L85.11 10.22L85.11 11.31L80.35 11.31L80.35 15.68L79.17 15.68ZM94.25 11.87L94.25 9.69L94.25 9.69Q94.25 7.78 95.16 6.73L95.16 6.73L95.16 6.73Q96.07 5.68 97.69 5.68L97.69 5.68L97.69 5.68Q99.32 5.68 100.23 6.73L100.23 6.73L100.23 6.73Q101.14 7.78 101.14 9.69L101.14 9.69L101.14 11.87L101.14 11.87Q101.14 13.83 100.23 14.85L100.23 14.85L100.23 14.85Q99.32 15.88 97.69 15.88L97.69 15.88L97.69 15.88Q96.07 15.88 95.16 14.85L95.16 14.85L95.16 14.85Q94.25 13.83 94.25 11.87L94.25 11.87ZM97.69 14.78L97.69 14.78L97.69 14.78Q98.83 14.78 99.39 14.01L99.39 14.01L99.39 14.01Q99.96 13.23 99.96 11.79L99.96 11.79L99.96 9.77L99.96 9.77Q99.96 8.43 99.39 7.60L99.39 7.60L99.39 7.60Q98.83 6.78 97.69 6.78L97.69 6.78L97.69 6.78Q96.56 6.78 95.99 7.60L95.99 7.60L95.99 7.60Q95.42 8.43 95.42 9.77L95.42 9.77L95.42 11.79L95.42 11.79Q95.42 13.23 95.99 14.01L95.99 14.01L95.99 14.01Q96.56 14.78 97.69 14.78ZM109.82 11.87L109.82 9.69L109.82 9.69Q109.82 7.78 110.73 6.73L110.73 6.73L110.73 6.73Q111.64 5.68 113.26 5.68L113.26 5.68L113.26 5.68Q114.88 5.68 115.79 6.73L115.79 6.73L115.79 6.73Q116.70 7.78 116.70 9.69L116.70 9.69L116.70 11.87L116.70 11.87Q116.70 13.83 115.79 14.85L115.79 14.85L115.79 14.85Q114.88 15.88 113.26 15.88L113.26 15.88L113.26 15.88Q111.64 15.88 110.73 14.85L110.73 14.85L110.73 14.85Q109.82 13.83 109.82 11.87L109.82 11.87ZM113.26 14.78L113.26 14.78L113.26 14.78Q114.39 14.78 114.96 14.01L114.96 14.01L114.96 14.01Q115.53 13.23 115.53 11.79L115.53 11.79L115.53 9.77L115.53 9.77Q115.53 8.43 114.96 7.60L114.96 7.60L114.96 7.60Q114.39 6.78 113.26 6.78L113.26 6.78L113.26 6.78Q112.13 6.78 111.56 7.60L111.56 7.60L111.56 7.60Q110.99 8.43 110.99 9.77L110.99 9.77L110.99 11.79L110.99 11.79Q110.99 13.23 111.56 14.01L111.56 14.01L111.56 14.01Q112.13 14.78 113.26 14.78ZM141.47 10.28L141.47 9.27L147.32 9.27L147.32 10.28L141.47 10.28ZM141.47 12.29L141.47 11.28L147.32 11.28L147.32 12.29L141.47 12.29ZM172.05 15.68L172.05 14.59L172.89 14.59L172.89 6.97L172.05 6.97L172.05 5.88L176.01 5.88L176.01 5.88Q176.71 5.88 177.25 6.08L177.25 6.08L177.25 6.08Q177.79 6.27 178.16 6.61L178.16 6.61L178.16 6.61Q178.53 6.94 178.72 7.41L178.72 7.41L178.72 7.41Q178.91 7.88 178.91 8.43L178.91 8.43L178.91 8.60L178.91 8.60Q178.91 9.00 178.78 9.34L178.78 9.34L178.78 9.34Q178.65 9.67 178.43 9.94L178.43 9.94L178.43 9.94Q178.21 10.21 177.91 10.39L177.91 10.39L177.91 10.39Q177.60 10.58 177.25 10.68L177.25 10.68L177.25 10.85L177.25 10.85Q177.95 11.05 178.43 11.60L178.43 11.60L178.43 11.60Q178.91 12.15 178.91 12.95L178.91 12.95L178.91 13.12L178.91 13.12Q178.91 13.66 178.72 14.13L178.72 14.13L178.72 14.13Q178.53 14.60 178.16 14.95L178.16 14.95L178.16 14.95Q177.79 15.29 177.25 15.48L177.25 15.48L177.25 15.48Q176.71 15.68 176.01 15.68L176.01 15.68L172.05 15.68ZM174.06 11.31L174.06 14.59L175.92 14.59L175.92 14.59Q176.75 14.59 177.27 14.17L177.27 14.17L177.27 14.17Q177.79 13.76 177.79 13.03L177.79 13.03L177.79 12.95L177.79 12.95Q177.79 12.19 177.30 11.75L177.30 11.75L177.30 11.75Q176.81 11.31 175.97 11.31L175.97 11.31L174.06 11.31ZM174.06 6.97L174.06 10.22L175.97 10.22L175.97 10.22Q176.81 10.22 177.30 9.79L177.30 9.79L177.30 9.79Q177.79 9.35 177.79 8.60L177.79 8.60L177.79 8.51L177.79 8.51Q177.79 7.80 177.27 7.38L177.27 7.38L177.27 7.38Q176.75 6.97 175.92 6.97L175.92 6.97L174.06 6.97ZM193.91 15.68L193.20 13.24L189.00 13.24L188.29 15.68L187.03 15.68L189.99 5.88L192.21 5.88L195.17 15.68L193.91 15.68ZM191.18 6.38L191.02 6.38L189.32 12.15L192.88 12.15L191.18 6.38ZM209.73 12.15L209.73 15.68L208.56 15.68L208.56 12.40L208.56 12.40Q208.56 12.04 208.39 11.84L208.39 11.84L208.39 11.84Q208.22 11.65 207.80 11.65L207.80 11.65L204.75 11.65L204.75 15.68L203.57 15.68L203.57 5.88L207.07 5.88L207.07 5.88Q207.83 5.88 208.39 6.10L208.39 6.10L208.39 6.10Q208.95 6.31 209.32 6.68L209.32 6.68L209.32 6.68Q209.69 7.04 209.88 7.53L209.88 7.53L209.88 7.53Q210.07 8.01 210.07 8.54L210.07 8.54L210.07 8.96L210.07 8.96Q210.07 9.51 209.77 10.05L209.77 10.05L209.77 10.05Q209.47 10.60 208.84 10.89L208.84 10.89L208.84 11.06L208.84 11.06Q209.26 11.13 209.50 11.40L209.50 11.40L209.50 11.40Q209.73 11.66 209.73 12.15L209.73 12.15ZM204.75 6.97L204.75 10.56L206.93 10.56L206.93 10.56Q207.93 10.56 208.41 10.13L208.41 10.13L208.41 10.13Q208.89 9.70 208.89 8.88L208.89 8.88L208.89 8.62L208.89 8.62Q208.89 7.88 208.41 7.43L208.41 7.43L208.41 7.43Q207.93 6.97 206.93 6.97L206.93 6.97L204.75 6.97Z"></path></g></svg>