<svg data-v-423bf9ae="" xmlns="http://www.w3.org/2000/svg" viewBox="0 0 59.99999999999999 60" class="icon"><!----><!----><!----><!----><g data-v-423bf9ae="" id="83517dd7-6ebc-4f56-aa28-c14ce37ae99f" transform="matrix(0.6666666269302368,0,0,0.6666666269302368,-3.333333969116211,-3.333333969116211)" stroke="none" fill="white"><circle cx="15.2" cy="84.8" r="10.2"></circle><circle cx="15.2" cy="67.4" r="2"></circle><circle cx="32.6" cy="50" r="2"></circle><circle cx="32.6" cy="84.8" r="2"></circle><circle cx="32.6" cy="67.4" r="10.2"></circle><circle cx="15.2" cy="50" r="10.2"></circle><circle cx="15.2" cy="32.6" r="2"></circle><circle cx="32.6" cy="15.2" r="2"></circle><circle cx="15.2" cy="15.2" r="10.2"></circle><circle cx="32.6" cy="32.6" r="10.2"></circle><circle cx="50" cy="84.8" r="10.2"></circle><circle cx="50" cy="67.4" r="2"></circle><circle cx="67.4" cy="50" r="2"></circle><circle cx="67.4" cy="84.8" r="2"></circle><circle cx="67.4" cy="67.4" r="10.2"></circle><circle cx="50" cy="50" r="10.2"></circle><circle cx="50" cy="32.6" r="2"></circle><circle cx="67.4" cy="15.2" r="2"></circle><circle cx="50" cy="15.2" r="10.2"></circle><circle cx="84.8" cy="84.8" r="10.2"></circle><circle cx="84.8" cy="67.4" r="2"></circle><circle cx="84.8" cy="50" r="10.2"></circle><circle cx="84.8" cy="32.6" r="2"></circle><circle cx="84.8" cy="15.2" r="10.2"></circle><circle cx="67.4" cy="32.6" r="10.2"></circle></g><!----></svg>