<svg data-v-fde0c5aa="" xmlns="http://www.w3.org/2000/svg" viewBox="0 0 300 300" class="icon"><!----><defs data-v-fde0c5aa=""><!----></defs><rect data-v-fde0c5aa="" fill="transparent" x="0" y="0" width="300px" height="300px" class="logo-background-square"></rect><!----><defs data-v-fde0c5aa=""><linearGradient data-v-fde0c5aa="" gradientTransform="rotate(25)" id="5df5a586-6ec8-4d8e-b2bc-8cfc57db5860" x1="0%" y1="0%" x2="100%" y2="0%"><stop data-v-fde0c5aa="" offset="0%" stop-color="#E90DDA" stop-opacity="1"></stop><stop data-v-fde0c5aa="" offset="100%" stop-color="#15CFF1" stop-opacity="1"></stop></linearGradient></defs><g data-v-fde0c5aa="" id="ccecf097-527c-4a87-858b-408d1cfa5a94" fill="url(#5df5a586-6ec8-4d8e-b2bc-8cfc57db5860)" stroke="none" transform="matrix(2.444444179534912,0,0,2.444444179534912,27.777778813868306,27.777778813868306)"><circle cx="15.2" cy="84.8" r="10.2"></circle><circle cx="15.2" cy="67.4" r="2"></circle><circle cx="32.6" cy="50" r="2"></circle><circle cx="32.6" cy="84.8" r="2"></circle><circle cx="32.6" cy="67.4" r="10.2"></circle><circle cx="15.2" cy="50" r="10.2"></circle><circle cx="15.2" cy="32.6" r="2"></circle><circle cx="32.6" cy="15.2" r="2"></circle><circle cx="15.2" cy="15.2" r="10.2"></circle><circle cx="32.6" cy="32.6" r="10.2"></circle><circle cx="50" cy="84.8" r="10.2"></circle><circle cx="50" cy="67.4" r="2"></circle><circle cx="67.4" cy="50" r="2"></circle><circle cx="67.4" cy="84.8" r="2"></circle><circle cx="67.4" cy="67.4" r="10.2"></circle><circle cx="50" cy="50" r="10.2"></circle><circle cx="50" cy="32.6" r="2"></circle><circle cx="67.4" cy="15.2" r="2"></circle><circle cx="50" cy="15.2" r="10.2"></circle><circle cx="84.8" cy="84.8" r="10.2"></circle><circle cx="84.8" cy="67.4" r="2"></circle><circle cx="84.8" cy="50" r="10.2"></circle><circle cx="84.8" cy="32.6" r="2"></circle><circle cx="84.8" cy="15.2" r="10.2"></circle><circle cx="67.4" cy="32.6" r="10.2"></circle></g><!----></svg>